<svg width="512" height="512" viewBox="144 44 324 324" version="1.1" xmlns="http://www.w3.org/2000/svg" desc="Created with imagetracer.js version 1.2.6" ><defs><clipPath id="circleClip"><circle cx="306" cy="206" r="162" /></clipPath></defs><g clip-path="url(#circleClip)"><path fill="rgb(0,0,0)" stroke="rgb(0,0,0)" stroke-width="1" opacity="0" d="M 0 0 L 612 0 L 612 408 L 0 408 L 0 0 Z M 298 44 L 297 45 L 289 45 L 282 47 L 270 48 L 245 56 Q 225 64 210 77 Q 207 76 208 79 L 206 80 Q 203 79 204 82 L 197 87 L 191 94 L 188 95 L 172 116 L 172 118 L 161 135 L 150 164 L 145 191 L 145 222 L 147 229 L 147 235 L 149 239 L 149 244 L 154 261 L 157 266 L 157 269 L 170 292 Q 169 294 172 293 Q 177 306 188 315 Q 187 317 190 316 L 191 319 Q 212 340 241 353 L 269 363 L 289 365 L 290 366 L 324 366 L 334 364 L 336 364 L 344 363 L 343 362 L 345 362 L 349 361 L 351 361 L 384 347 L 401 336 L 403 333 L 405 333 L 411 327 Q 413 328 412 325 L 419 321 L 418 320 Q 419 317 421 319 Q 425 317 422 316 L 428 311 Q 427 308 430 309 Q 445 291 455 268 L 463 243 Q 463 234 466 229 L 466 220 L 467 219 L 466 183 L 464 179 L 463 168 L 459 155 L 446 126 L 428 101 Q 403 71 365 55 L 338 47 L 330 47 L 314 44 L 298 44 Z " /><path fill="rgb(0,0,0)" stroke="rgb(0,0,0)" stroke-width="1" opacity="0" d="M 291.5 55 L 329.5 56 L 359.5 64 Q 394 78 417 103.5 L 435 127.5 L 447 152.5 L 455 181.5 L 455 189.5 L 456 190.5 L 456 220.5 L 455 221.5 L 454 234.5 L 447 258.5 Q 439.3 278.8 428 294 Q 425.3 292.9 426 295.5 L 420 305 L 417 306.5 L 417.5 308 Q 416.3 305.8 415 308.5 L 415.5 310 Q 413.8 307.3 412 311.5 L 410 314.5 L 400 322.5 Q 402.3 323.8 399.5 325 L 397.5 326 Q 396.3 323.7 395 326.5 L 395.5 328 Q 394 325.5 392.5 329 L 380 336 L 379.5 338 L 377.5 338 L 362.5 346 L 358.5 346 L 355.5 348 L 334.5 354 Q 333 351.5 331.5 355 L 328.5 354 L 323.5 356 Q 312.7 354.3 306.5 357 L 304.5 357 L 302.5 356 L 288.5 356 L 277.5 353 L 271.5 353 L 236.5 340 Q 209.2 325.3 190 302.5 L 173 277.5 L 162 252.5 L 161 245.5 L 157 234.5 L 156 216.5 L 155 215.5 L 155 193.5 L 156 192.5 L 157 175.5 L 167 145.5 L 177 126.5 L 197 100 L 221.5 80 L 242.5 68 L 263.5 60 L 291.5 55 Z M 351 110 L 346 118 Q 343 117 344 120 Q 341 121 342 119 L 341 119 L 335 116 L 334 118 L 332 119 Q 329 118 330 121 L 328 125 Q 327 127 330 126 L 331 129 L 331 131 L 332 133 L 331 132 L 330 136 L 327 135 L 327 137 L 324 136 Q 321 137 323 139 Q 324 147 322 150 L 327 149 L 327 151 L 330 150 L 330 154 L 332 154 L 328 161 Q 326 165 330 164 L 332 168 Q 334 172 336 169 L 338 170 L 345 167 L 348 169 L 347 171 Q 350 172 349 176 L 354 177 L 361 176 L 364 171 L 362 170 L 368 166 L 368 168 L 372 169 L 374 169 L 376 170 Q 378 171 377 169 L 380 167 Q 378 165 382 163 L 378 156 L 381 150 L 385 151 L 385 149 L 388 150 L 389 149 L 389 138 L 388 138 L 388 137 L 381 135 L 380 131 L 378 131 L 382 124 L 381 121 Q 378 122 376 117 L 369 118 L 369 120 L 367 120 L 367 119 L 365 118 L 361 112 L 360 110 L 351 110 Z M 374 115 L 374 116 L 376 116 L 374 115 Z M 251 133 L 246 135 L 239 145 Q 238 153 242 157 L 247 160 L 248 162 L 248 242 L 244 245 L 245 242 L 243 237 Q 240 238 241 236 L 238 233 L 234 228 L 231 226 L 226 220 L 227 217 L 226 214 L 227 212 L 227 198 L 235 189 L 235 179 L 231 172 L 225 169 Q 217 168 213 171 Q 208 174 206 181 L 206 186 L 208 192 L 214 196 L 215 198 L 215 227 L 232 244 L 232 251 L 217 251 L 216 247 L 213 245 L 211 242 L 207 241 Q 198 240 195 245 L 189 255 L 191 265 Q 193 270 200 271 L 212 270 L 217 266 L 216 265 L 218 263 Q 223 265 225 262 L 232 263 L 233 267 L 232 268 L 232 292 L 219 292 L 217 293 Q 214 294 215 300 L 219 302 L 247 302 L 251 300 Q 252 295 250 294 Q 247 295 248 292 L 244 292 L 244 284 L 244 282 Q 246 276 243 275 L 245 270 L 243 270 Q 242 266 245 267 L 244 266 L 244 261 Q 247 262 246 260 L 249 258 L 255 250 L 262 246 L 286 224 L 290 219 L 308 202 Q 310 203 309 200 L 311 200 L 311 198 L 317 195 L 320 191 L 328 185 L 349 207 L 349 208 L 355 211 L 360 211 L 364 208 Q 363 205 366 206 L 367 204 L 374 198 L 382 189 Q 384 190 383 187 L 385 187 L 407 165 L 414 170 L 416 169 L 416 145 L 414 142 L 405 143 L 401 145 L 395 145 L 391 148 L 391 150 L 397 156 L 396 158 L 388 164 L 385 168 L 378 174 L 376 177 L 366 186 L 363 190 L 358 194 L 357 195 L 336 174 Q 333 175 334 173 L 330 169 L 324 170 L 316 177 L 314 180 L 309 184 Q 306 183 307 186 L 294 198 Q 295 200 293 199 L 291 202 L 279 211 L 279 203 L 280 202 L 279 197 L 280 191 L 289 182 L 301 182 L 303 181 L 310 172 L 310 164 L 306 156 L 301 153 L 290 153 L 288 154 L 280 163 Q 283 176 275 179 Q 272 178 273 181 L 271 181 L 267 187 L 267 224 L 259 231 L 260 230 L 260 162 L 263 160 L 268 153 Q 270 143 266 140 Q 267 137 265 138 L 263 135 L 258 133 L 251 133 Z M 322 138 L 321 148 L 322 148 L 322 138 Z M 400 179 L 383 194 L 381 197 L 379 198 L 377 201 L 375 202 L 373 205 L 360 215 L 357 220 L 357 301 L 359 302 L 398 302 L 402 297 L 402 180 L 400 179 Z M 327 196 L 324 198 L 322 201 L 316 206 L 313 210 L 310 212 Q 311 214 309 213 L 307 215 L 307 301 L 309 302 L 350 302 L 352 296 L 351 293 L 351 222 L 352 221 L 349 215 L 347 212 L 333 198 Q 330 199 331 196 L 327 196 Z M 300 221 L 285 235 Q 282 234 283 237 L 282 237 L 273 246 Q 270 245 271 248 L 268 250 L 266 253 L 257 261 L 257 301 L 259 302 L 300 302 L 300 301 L 300 299 L 301 297 L 301 231 L 302 230 L 300 221 Z " /><path fill="rgb(0,0,0)" stroke="rgb(0,0,0)" stroke-width="1" opacity="0" d="M 352.5 135 Q 361.5 133.5 363 139.5 L 364 143.5 L 359.5 150 L 352.5 151 L 349 148.5 L 347 141.5 L 350.5 136 L 352.5 135 Z " /><path fill="rgb(0,0,0)" stroke="rgb(0,0,0)" stroke-width="1" opacity="0" d="M 251 143 L 258 144 L 259 147.5 L 258 151 L 251.5 152 L 249 148.5 L 251 143 Z " /><path fill="rgb(0,0,0)" stroke="rgb(0,0,0)" stroke-width="1" opacity="0" d="M 293.5 163 Q 298.3 162.3 299 165.5 Q 300 171 296.5 172 Q 292.8 172.8 292 170.5 L 291 164 L 293.5 163 Z " /><path fill="rgb(0,0,0)" stroke="rgb(0,0,0)" stroke-width="1" opacity="0" d="M 217.5 179 Q 223.5 177.5 225 180.5 L 226 184.5 L 224 188 L 216 187 L 217 184.5 L 216 181.5 L 217.5 179 Z " /><path fill="rgb(0,0,0)" stroke="rgb(0,0,0)" stroke-width="1" opacity="0" d="M 203.5 251 L 205.5 251 L 210 255.5 L 207.5 261 L 203.5 262 L 200 261 L 199 253.5 L 203.5 251 Z " /><path fill="rgb(36,110,137)" stroke="rgb(36,110,137)" stroke-width="1" opacity="0.9411764705882353" d="M 350.5 110 L 359.5 110 L 361 111.5 L 363 118 L 368.5 120 Q 369.9 116.4 375.5 117 L 382 123.5 L 381 124.5 L 378 130.5 L 381.5 136 Q 386.6 135.4 388 138.5 L 388 148.5 L 384.5 149 L 380 150 L 378 155.5 L 382 162.5 L 375.5 169 L 372.5 169 L 367.5 166 L 362 169.5 Q 363 175 359.5 176 L 350.5 176 L 349 174.5 L 348 168.5 L 346.5 167 L 342.5 166 L 338.5 169 L 334.5 169 L 329 163.5 L 329 160.5 L 332 156.5 L 332 153.5 L 329.5 150 L 323 149 L 323 137.5 L 326.5 137 L 331 134.5 L 332 129.5 L 328 124.5 L 334.5 117 L 337.5 117 L 343.5 120 L 348 116.5 L 350.5 110 Z M 351 126 L 346 129 Q 343 128 344 131 L 342 131 L 339 137 L 338 142 L 339 150 L 341 153 Q 344 158 352 160 Q 361 161 366 157 L 372 149 Q 374 137 369 133 Q 365 124 351 126 Z " /><path fill="rgb(36,110,137)" stroke="rgb(36,110,137)" stroke-width="1" opacity="0.9411764705882353" d="M 251.5 134 Q 261.4 133.6 265 139.5 Q 268 143.5 267 151.5 L 261.5 159 L 259 160.5 L 259.5 232 L 267 226 L 268 223.5 L 268 200.5 L 269 199.5 L 269.5 191 L 271 200 L 276 201 L 275 203.5 L 276.5 204 L 278 203.5 L 277.5 206 L 275 205 Q 273.9 208.3 278 207 L 278 213.5 L 281.5 211 L 286.5 207 L 285 209.5 L 286.5 211 L 292.5 212 L 296 211.5 L 268.5 238 L 267 238 L 265.5 241 L 243 261.5 L 243 291.5 L 244.5 293 Q 249.3 292.3 250 295.5 Q 250.8 300.3 247.5 301 L 218.5 301 L 216 300 Q 214.5 294.6 217.5 293 L 233 293 L 233 262 L 217.5 262 L 216 263.5 L 211.5 269 Q 206.8 271.3 198.5 270 L 196 269 Q 197.1 266.3 194.5 267 Q 189.5 263.5 190 254.5 L 195.5 245 Q 198.7 241.2 206.5 242 L 214 245 L 217 252 L 233 252 L 233 242.5 L 216 226.5 L 216 196.5 L 214.5 196 L 211 193.5 L 209 190.5 Q 206 187.5 207 180.5 L 209 175 Q 211.7 176.1 211 173.5 Q 214.8 168.3 225.5 170 L 232 175.5 Q 235.3 179.2 234 187.5 L 228.5 195 L 226 196.5 L 226 222.5 L 233.5 230 Q 235.8 229.3 235 231.5 L 243 238 L 243.5 247 L 249 241.5 L 249 160.5 L 242 154.5 Q 239.3 150.7 241 142.5 L 246.5 136 L 251.5 134 Z M 252 142 L 248 147 L 249 152 L 253 154 L 256 154 L 260 149 L 259 143 Q 257 141 252 142 Z M 219 178 L 216 179 L 215 182 L 216 188 Q 217 191 224 189 L 227 185 L 226 181 Q 225 177 219 178 Z M 204 250 L 202 251 L 198 256 L 200 261 L 201 262 L 208 262 L 211 258 L 209 253 L 204 250 Z " /><path fill="rgb(36,110,137)" stroke="rgb(36,110,137)" stroke-width="1" opacity="0.9411764705882353" d="M 298.5 223 L 300 223.5 L 300 301 L 258.5 301 L 257 299.5 L 258 293.5 L 257 292.5 L 257 283.5 L 258 279.5 L 257 278.5 L 257 266.5 Q 259.3 265.3 258 260.5 L 264.5 254 L 276 245 Q 274.9 242.3 277.5 243 L 281 238 L 290 231.5 L 290 230 L 292 230 L 292 228 L 294 228 Q 292.9 225.3 295.5 226 L 298.5 223 Z " /><path fill="rgb(36,110,137)" stroke="rgb(36,110,137)" stroke-width="1" opacity="0.9411764705882353" d="M 456.5 233 L 456.5 236 Q 454.3 236.8 455 234.5 L 456.5 233 Z " /><path fill="rgb(36,110,137)" stroke="rgb(36,110,137)" stroke-width="1" opacity="0.9411764705882353" d="M 457.5 237 L 458 238.5 L 458 240.5 Q 458.8 242.8 456.5 242 L 456.5 243 L 459 243.5 L 456 245.5 L 459 247.5 L 458 245.5 L 460.5 244 L 460 245.5 Q 460.8 249.8 458 250.5 L 459 252.5 L 456 257.5 L 456 259.5 L 450 275.5 L 443 288.5 Q 430.8 308.8 413.5 324 L 404.5 332 L 379.5 348 L 349.5 360 L 324.5 365 L 288.5 365 L 262.5 360 L 238.5 351 Q 211.1 337.4 191 316.5 L 187 311.5 Q 177.1 304 173 292 Q 170.3 293.1 171 290.5 L 166 283.5 L 167 282.5 L 164 279.5 L 160 270.5 L 162 271.5 L 162.5 273 L 166 272.5 L 164 276.5 Q 163.3 278.8 165.5 278 L 168.5 276 L 168.5 278 Q 171.1 278.8 170 275.5 L 165 268.5 L 165 266.5 L 163.5 262 Q 162.3 264.3 161 261.5 L 161.5 260 L 162.5 262 L 163 259.5 L 161.5 257 Q 163.8 256.3 163 258.5 L 173 280.5 L 180 291.5 L 177 292.5 L 177.5 294 L 181.5 293 Q 191.8 308.2 205.5 320 L 227.5 336 L 254.5 349 L 281.5 356 L 308.5 358 L 311.5 357 L 321.5 357 L 322.5 356 L 329.5 356 L 339.5 354 L 359.5 348 L 361.5 346 L 364.5 346 Q 398.4 330.9 421 304.5 Q 434 290 443 271.5 L 451 251.5 L 451 248.5 L 453 246.5 L 453 244.5 L 455 241.5 L 454 239.5 L 455 239.5 Q 454.3 241.8 456.5 241 L 457 238.5 L 457.5 237 Z M 455 244 L 454 247 L 455 247 L 455 244 Z M 455 247 L 455 249 L 457 248 L 455 247 Z M 455 256 L 454 259 L 455 259 L 455 256 Z M 166 278 L 166 280 L 168 279 L 166 278 Z M 171 285 L 170 288 L 171 288 L 171 285 Z M 174 289 L 172 291 L 174 292 L 174 289 Z M 176 290 L 174 294 Q 177 295 176 293 Q 178 291 176 290 Z M 177 294 L 175 296 L 177 296 L 177 294 Z M 180 296 L 178 299 L 180 298 L 180 296 Z M 189 304 Q 187 307 190 306 L 189 304 Z M 185 306 Q 183 309 186 308 L 185 306 Z M 188 306 L 187 308 L 189 309 L 188 306 Z M 191 306 Q 189 309 192 308 L 191 306 Z M 187 308 Q 185 311 188 310 L 187 308 Z " /><path fill="rgb(36,110,137)" stroke="rgb(36,110,137)" stroke-width="1" opacity="0.9411764705882353" d="M 153.5 252 L 156 256.5 L 154 255.5 L 153.5 252 Z " /><path fill="rgb(36,110,137)" stroke="rgb(36,110,137)" stroke-width="1" opacity="0.9411764705882353" d="M 308.5 255 Q 310.9 258.3 310 264 L 313 265.5 L 312.5 267 Q 315.5 266.1 314 270.5 L 317.5 272 L 319 271.5 L 318 274 L 323 277.5 L 327 282.5 L 329 287 L 335.5 290 L 337 289.5 L 339 292.5 Q 336.8 293.8 339.5 295 L 340.5 293 L 341 294.5 L 340 296.5 L 342 296.5 Q 340.5 300.9 343.5 300 L 343.5 301 L 308 301 L 308.5 255 Z " /><path fill="rgb(36,110,137)" stroke="rgb(36,110,137)" stroke-width="1" opacity="0.9411764705882353" d="M 157.5 259 L 160 260.5 L 158 264.5 L 160 264.5 Q 158.5 267.5 157 264.5 L 156 260.5 L 157.5 259 Z " /><path fill="rgb(36,110,137)" stroke="rgb(36,110,137)" stroke-width="1" opacity="0.9411764705882353" d="M 158.5 267 L 161 267.5 Q 158.9 270.8 158.5 267 Z " /><path fill="rgb(36,110,137)" stroke="rgb(36,110,137)" stroke-width="1" opacity="0.9411764705882353" d="M 347.5 300 L 350 300.5 L 347.5 301 L 347.5 300 Z " /><path fill="rgb(138,181,169)" stroke="rgb(138,181,169)" stroke-width="1" opacity="0.13333333333333333" d="M 297.5 44 L 313.5 44 L 329.5 47 L 337.5 47 L 364.5 55 Q 403 71 428 100.5 L 446 125.5 L 459 154.5 L 463 167.5 L 464 178.5 L 466 182.5 L 467 218.5 L 466 219.5 L 466 228.5 Q 462.9 233.9 463 242.5 L 455 267.5 Q 444.6 290.9 430 309 Q 427.3 307.9 428 310.5 L 424 313.5 Q 445.5 291 457 258.5 L 464 230.5 L 465 213.5 L 466 212.5 L 466 199.5 L 465 198.5 L 465 187.5 L 462 170.5 L 454 144.5 L 446 128.5 L 435 111.5 L 410.5 85 L 390.5 70 L 359.5 55 L 333.5 48 L 317.5 47 L 316.5 46 L 295.5 46 L 294.5 47 L 278.5 48 L 261.5 52 L 233.5 63 Q 203.7 78.7 183 103.5 Q 164.7 125.7 154 155.5 L 148 179.5 L 147 196.5 L 146 197.5 L 146 214.5 L 147 215.5 L 148 232.5 L 151 246.5 L 158 267.5 L 169 288.5 L 187 313 Q 189.7 311.9 189 314.5 Q 206.8 333.7 230.5 347 L 262.5 360 L 266.5 360 L 274.5 363 L 288 364.5 L 281.5 365 L 258.5 360 L 228.5 347 Q 207.5 335 191 318.5 L 189.5 316 Q 187.3 316.8 188 314.5 Q 177.2 305.9 172 293 Q 169.3 294.1 170 291.5 L 157 268.5 L 157 265.5 L 154 260.5 L 149 243.5 L 149 238.5 L 147 234.5 L 147 228.5 L 145 221.5 L 145 190.5 L 150 163.5 L 161 134.5 L 172 117.5 L 172 115.5 L 188 95 L 191 93.5 L 196.5 87 L 204 81.5 Q 203.3 79.3 205.5 80 L 208 79 Q 206.9 76.3 209.5 77 Q 224.6 64.1 244.5 56 L 269.5 48 L 281.5 47 L 288.5 45 L 296.5 45 L 297.5 44 Z " /><path fill="rgb(138,181,169)" stroke="rgb(138,181,169)" stroke-width="1" opacity="0.13333333333333333" d="M 292.5 53 L 328.5 54 L 356.5 61 L 380.5 72 L 409 93 Q 407.9 95.7 410.5 95 L 416 102 L 419 103.5 L 421 106.5 Q 439.6 127.4 450 156.5 L 456 179.5 L 458 211.5 L 457 212.5 L 457 223.5 L 454 240.5 L 446 264.5 L 434 287.5 L 418.5 307 L 417 307 L 417 309 Q 414.3 307.9 415 310.5 Q 410 319 400.5 323 L 401.5 321 L 410 314.5 L 412 311.5 L 420 305 L 426 294 Q 428.7 295.1 428 292.5 L 432 288.5 L 442 270.5 L 447 258.5 L 447 255.5 L 450 250.5 L 456 220.5 L 456 190.5 L 451 164.5 L 439 134.5 L 424 111.5 L 407.5 94 Q 387.2 75.3 359.5 64 L 329.5 56 L 291.5 55 L 263.5 60 L 242.5 68 L 221.5 80 L 197 100 L 177 126.5 Q 167.9 140.9 162 158.5 L 157 175.5 L 157 183.5 L 155 193.5 L 155 215.5 L 156 216.5 L 157 234.5 L 161 245.5 L 162 252.5 L 173 277.5 Q 187 303 208.5 321 L 236.5 340 Q 252.1 347.9 271 352.5 L 267.5 353 Q 219.4 339.1 191 305.5 L 173 280.5 L 162 256.5 L 155 230.5 L 154 213.5 L 153 212.5 L 153 197.5 L 154 196.5 L 156 174.5 L 166 143.5 Q 180.2 113.2 203.5 92 Q 222.1 74.6 247.5 64 L 272.5 56 L 277.5 56 L 283.5 54 L 291.5 54 L 292.5 53 Z " /><path fill="rgb(138,181,169)" stroke="rgb(138,181,169)" stroke-width="1" opacity="0.13333333333333333" d="M 335.5 115 L 337 115.5 L 334.5 117 L 335.5 115 Z " /><path fill="rgb(138,181,169)" stroke="rgb(138,181,169)" stroke-width="1" opacity="0.13333333333333333" d="M 347.5 115 L 348 116.5 L 344.5 119 L 344.5 118 L 347 116.5 L 347.5 115 Z " /><path fill="rgb(138,181,169)" stroke="rgb(138,181,169)" stroke-width="1" opacity="0.13333333333333333" d="M 373.5 115 L 376 115.5 L 373.5 116 L 373.5 115 Z " /><path fill="rgb(138,181,169)" stroke="rgb(138,181,169)" stroke-width="1" opacity="0.13333333333333333" d="M 332.5 118 L 328.5 123 L 330 120.5 Q 329.3 118.3 331.5 119 L 332.5 118 Z " /><path fill="rgb(138,181,169)" stroke="rgb(138,181,169)" stroke-width="1" opacity="0.13333333333333333" d="M 378.5 118 L 381 121.5 L 380 121.5 L 378.5 118 Z " /><path fill="rgb(138,181,169)" stroke="rgb(138,181,169)" stroke-width="1" opacity="0.13333333333333333" d="M 330.5 129 L 332 131.5 L 330.5 135 L 330 132.5 L 331 130.5 L 330.5 129 Z " /><path fill="rgb(138,181,169)" stroke="rgb(138,181,169)" stroke-width="1" opacity="0.13333333333333333" d="M 379.5 131 L 381 135 Q 386.3 134.3 389 137.5 L 389 148.5 L 387.5 150 L 381.5 151 L 381.5 150 L 388 149 L 388 137.5 L 385.5 137 L 380 134.5 L 379.5 131 Z " /><path fill="rgb(138,181,169)" stroke="rgb(138,181,169)" stroke-width="1" opacity="0.13333333333333333" d="M 250.5 133 L 257.5 133 L 263 135 L 264.5 138 Q 266.8 137.3 266 139.5 Q 270 143 268 152.5 L 262.5 160 L 260 161.5 L 260.5 230 L 267 223.5 L 267 186.5 L 271 181 L 273 181 Q 271.9 178.3 274.5 179 Q 282.8 176.3 280 162.5 L 287.5 154 L 289.5 153 L 300.5 153 L 306 156 L 310 163.5 L 310 171.5 L 302.5 181 L 300.5 182 L 288.5 182 L 280 190.5 L 279 196.5 L 280 201.5 L 279 202.5 L 279 211 L 291 202 L 292.5 199 Q 294.8 199.8 294 197.5 L 307 185.5 Q 306.3 183.3 308.5 184 L 314 179.5 L 316 176.5 L 323.5 170 L 329.5 169 L 334 172.5 Q 333.3 174.8 335.5 174 L 356.5 195 L 357.5 194 L 363 189.5 L 365.5 186 L 376 176.5 L 377.5 174 L 385 167.5 L 387.5 164 L 396 158 L 397 155.5 L 391 149.5 L 391 147.5 L 394.5 145 L 400.5 145 L 404.5 143 L 413.5 142 L 416 144.5 L 416 168.5 L 413.5 170 L 406.5 165 L 384.5 187 L 383 187 Q 384.1 189.7 381.5 189 L 373.5 198 L 367 203.5 L 365.5 206 Q 363.3 205.3 364 207.5 L 359.5 211 L 354.5 211 L 349 208 L 349 206.5 L 327.5 185 L 320 190.5 L 316.5 195 L 311 198 L 311 200 L 309 200 Q 310.1 202.7 307.5 202 L 290 218.5 L 285.5 224 L 256.5 250 L 264.5 241 L 267 239.5 Q 266.3 237.3 268.5 238 L 299.5 208 L 301 208 Q 299.9 205.3 302.5 206 L 322 187.5 Q 321.3 185.3 323.5 186 L 327.5 183 L 353.5 209 L 358.5 210 L 364 206 L 371.5 197 L 374.5 195 L 382 186 L 383.5 186 L 407.5 163 L 415 168 L 415 148.5 L 414 144 L 397.5 146 L 392 148.5 L 399 155.5 L 368.5 186 L 367 186 L 367 188 Q 364.3 186.9 365 189.5 L 356.5 197 L 329.5 170 L 325.5 170 L 318 176.5 L 316.5 179 L 278.5 214 L 278 190.5 L 289.5 180 L 290.5 181 L 299.5 181 L 306 175.5 Q 309.8 172.3 308 163.5 L 302.5 156 Q 298.8 152.7 290.5 154 L 283 160.5 Q 280 163.5 281 170.5 L 282 173.5 L 270 184.5 L 268 187.5 L 268 191.5 L 269 199.5 L 268 200.5 L 268 223.5 L 267 226 L 259.5 232 L 259 229.5 L 259 160.5 L 260.5 159 L 265 155.5 Q 268.3 151.8 267 143.5 L 261.5 136 L 256.5 134 L 251.5 134 Q 245.8 135.3 243 139.5 Q 239 143 241 152.5 L 246.5 159 L 249 160.5 L 249 241.5 L 243.5 247 L 243 238 L 235 231.5 Q 235.8 229.3 233.5 230 L 226 221.5 L 227 221.5 L 230.5 226 L 233.5 228 L 237.5 233 L 241 235.5 Q 240.3 237.8 242.5 237 L 245 241.5 L 244 244.5 L 248 241.5 L 248 161.5 L 246.5 160 L 242 156.5 Q 238 153 239 144.5 L 245.5 135 L 250.5 133 Z " /><path fill="rgb(138,181,169)" stroke="rgb(138,181,169)" stroke-width="1" opacity="0.13333333333333333" d="M 353.5 133 Q 360.8 132.2 363 136.5 Q 365.8 139.2 365 145.5 L 361.5 151 L 353.5 153 L 347 148.5 L 346 139.5 L 350.5 134 L 353.5 133 Z M 353 135 L 351 136 L 347 142 L 349 149 L 353 151 L 360 150 L 364 144 L 363 140 Q 362 134 353 135 Z " /><path fill="rgb(138,181,169)" stroke="rgb(138,181,169)" stroke-width="1" opacity="0.13333333333333333" d="M 326.5 135 L 329 135.5 L 326.5 136 L 326.5 135 Z " /><path fill="rgb(138,181,169)" stroke="rgb(138,181,169)" stroke-width="1" opacity="0.13333333333333333" d="M 323.5 136 L 322 138.5 L 322 147.5 L 323.5 149 L 325 149.5 L 322 150 Q 319.9 146.7 321 138.5 L 323.5 136 Z " /><path fill="rgb(138,181,169)" stroke="rgb(138,181,169)" stroke-width="1" opacity="0.13333333333333333" d="M 251.5 142 Q 256.9 141.4 259 143 L 260 148.5 L 255.5 154 L 252.5 154 L 249 152 L 248 146.5 L 251.5 142 Z M 251 143 L 249 149 L 252 152 L 258 151 L 259 148 L 258 144 L 251 143 Z " /><path fill="rgb(138,181,169)" stroke="rgb(138,181,169)" stroke-width="1" opacity="0.13333333333333333" d="M 326.5 150 L 329 150.5 L 326.5 151 L 326.5 150 Z " /><path fill="rgb(138,181,169)" stroke="rgb(138,181,169)" stroke-width="1" opacity="0.13333333333333333" d="M 330.5 151 L 332 156.5 Q 328.6 158.6 328.5 164 L 328 160.5 L 331 154.5 L 330.5 151 Z " /><path fill="rgb(138,181,169)" stroke="rgb(138,181,169)" stroke-width="1" opacity="0.13333333333333333" d="M 292.5 162 Q 299.8 160.8 301 165.5 Q 302 172 297.5 173 Q 292.1 173.6 290 172 L 289 165.5 L 290 163 L 292.5 162 Z M 294 163 L 291 164 L 292 171 Q 293 173 297 172 Q 300 171 299 166 Q 298 162 294 163 Z " /><path fill="rgb(138,181,169)" stroke="rgb(138,181,169)" stroke-width="1" opacity="0.13333333333333333" d="M 380.5 165 L 379.5 167 L 377 168.5 Q 377.8 170.8 375.5 170 L 373.5 171 L 368 167.5 L 369.5 167 L 374.5 170 L 380.5 165 Z " /><path fill="rgb(138,181,169)" stroke="rgb(138,181,169)" stroke-width="1" opacity="0.13333333333333333" d="M 342.5 166 L 344 166.5 L 339.5 169 L 340.5 167 L 342.5 166 Z " /><path fill="rgb(138,181,169)" stroke="rgb(138,181,169)" stroke-width="1" opacity="0.13333333333333333" d="M 332.5 167 L 336.5 170 L 338 169.5 L 335.5 171 L 332.5 167 Z " /><path fill="rgb(138,181,169)" stroke="rgb(138,181,169)" stroke-width="1" opacity="0.13333333333333333" d="M 345.5 167 L 346.5 169 L 345.5 167 Z " /><path fill="rgb(138,181,169)" stroke="rgb(138,181,169)" stroke-width="1" opacity="0.13333333333333333" d="M 217.5 169 L 225 169.5 L 217.5 170 L 217.5 169 Z " /><path fill="rgb(138,181,169)" stroke="rgb(138,181,169)" stroke-width="1" opacity="0.13333333333333333" d="M 214.5 170 L 216 170.5 L 211 173.5 L 209 176.5 L 208 176.5 L 212.5 171 L 214.5 170 Z " /><path fill="rgb(138,181,169)" stroke="rgb(138,181,169)" stroke-width="1" opacity="0.13333333333333333" d="M 226.5 170 L 231 172 L 235 178.5 L 235 188.5 L 227 197.5 L 226.5 212 L 226 196.5 L 232 191.5 Q 235.3 187.8 234 179.5 L 227.5 171 L 226.5 170 Z " /><path fill="rgb(138,181,169)" stroke="rgb(138,181,169)" stroke-width="1" opacity="0.13333333333333333" d="M 362 170 L 364 170.5 L 362.5 173 L 362 170 Z " /><path fill="rgb(138,181,169)" stroke="rgb(138,181,169)" stroke-width="1" opacity="0.13333333333333333" d="M 361.5 174 L 360.5 176 L 361.5 174 Z " /><path fill="rgb(138,181,169)" stroke="rgb(138,181,169)" stroke-width="1" opacity="0.13333333333333333" d="M 353.5 176 L 359 176.5 L 353.5 177 L 353.5 176 Z " /><path fill="rgb(138,181,169)" stroke="rgb(138,181,169)" stroke-width="1" opacity="0.13333333333333333" d="M 207.5 178 L 208 179.5 L 206.5 186 L 206 180.5 L 207.5 178 Z " /><path fill="rgb(138,181,169)" stroke="rgb(138,181,169)" stroke-width="1" opacity="0.13333333333333333" d="M 218.5 178 Q 224.8 176.8 226 180.5 L 227 184.5 L 223.5 189 Q 217.5 190.5 216 187.5 L 217.5 187 L 224 188 L 226 182.5 L 223.5 179 Q 217.5 180.3 218.5 178 Z " /><path fill="rgb(138,181,169)" stroke="rgb(138,181,169)" stroke-width="1" opacity="0.13333333333333333" d="M 399.5 179 L 402 179.5 L 402 296.5 L 397.5 302 L 358.5 302 L 357 300.5 L 357 219.5 L 360 215 L 373 204.5 L 374.5 202 L 377 200.5 L 378.5 198 L 381 196.5 L 382.5 194 L 399.5 179 Z M 400 181 L 398 183 Q 395 182 396 185 L 395 185 L 380 200 Q 377 199 378 202 L 361 216 L 359 220 L 359 225 L 359 227 L 359 301 L 397 301 L 401 296 L 401 182 L 400 181 Z " /><path fill="rgb(138,181,169)" stroke="rgb(138,181,169)" stroke-width="1" opacity="0.13333333333333333" d="M 215.5 181 L 217 182.5 L 215.5 186 L 215.5 181 Z " /><path fill="rgb(138,181,169)" stroke="rgb(138,181,169)" stroke-width="1" opacity="0.13333333333333333" d="M 207.5 187 L 209 192 Q 211.7 190.9 211 193.5 L 216 196 L 216 226.5 L 227.5 238 L 233 242.5 L 233 252 L 217.5 252 L 217.5 251 L 232 251 L 232 243.5 L 215 226.5 L 215 197.5 L 213.5 196 L 208 191.5 L 207.5 187 Z " /><path fill="rgb(138,181,169)" stroke="rgb(138,181,169)" stroke-width="1" opacity="0.13333333333333333" d="M 326.5 196 L 331 196 Q 329.9 198.7 332.5 198 L 347 211.5 L 349 214.5 L 352 220.5 L 351 221.5 L 351 292.5 L 352 295.5 L 349.5 302 L 308.5 302 L 307 300.5 L 307 214.5 L 308.5 213 Q 310.8 213.8 310 211.5 L 313 210 L 315.5 206 L 322 200.5 L 323.5 198 L 326.5 196 Z M 328 197 L 318 206 L 308 216 L 308 301 L 350 301 L 350 218 L 330 197 L 328 197 Z " /><path fill="rgb(138,181,169)" stroke="rgb(138,181,169)" stroke-width="1" opacity="0.13333333333333333" d="M 226.5 214 L 227 216.5 L 226 216.5 L 226.5 214 Z " /><path fill="rgb(138,181,169)" stroke="rgb(138,181,169)" stroke-width="1" opacity="0.13333333333333333" d="M 299.5 221 L 302 229.5 L 301 230.5 L 300.5 297 L 300 223 L 294 226 L 294 228 L 292 228 L 292 230 Q 289.3 228.9 290 231.5 L 281 238 L 277.5 243 L 274.5 245 L 258 260.5 L 257.5 266 L 257 260.5 L 266 253 L 267.5 250 L 271 247.5 Q 270.3 245.3 272.5 246 L 281.5 237 L 283 237 Q 281.9 234.3 284.5 235 L 299.5 221 Z " /><path fill="rgb(138,181,169)" stroke="rgb(138,181,169)" stroke-width="1" opacity="0.13333333333333333" d="M 202.5 241 L 211 242.5 L 207.5 243 L 202.5 242 L 202.5 241 Z " /><path fill="rgb(138,181,169)" stroke="rgb(138,181,169)" stroke-width="1" opacity="0.13333333333333333" d="M 198.5 242 L 201 242.5 L 196.5 245 L 198.5 242 Z " /><path fill="rgb(138,181,169)" stroke="rgb(138,181,169)" stroke-width="1" opacity="0.13333333333333333" d="M 194.5 245 L 193 247.5 L 189.5 259 L 189 254.5 L 194.5 245 Z " /><path fill="rgb(138,181,169)" stroke="rgb(138,181,169)" stroke-width="1" opacity="0.13333333333333333" d="M 214.5 245 L 216 247.5 L 214 246.5 L 214.5 245 Z " /><path fill="rgb(138,181,169)" stroke="rgb(138,181,169)" stroke-width="1" opacity="0.13333333333333333" d="M 203.5 250 L 209 252.5 L 211 257.5 L 207.5 262 L 206 261.5 L 209 259.5 L 210 255.5 L 205.5 251 L 203.5 251 L 201.5 252 L 201.5 251 L 203.5 250 Z " /><path fill="rgb(138,181,169)" stroke="rgb(138,181,169)" stroke-width="1" opacity="0.13333333333333333" d="M 254.5 251 L 248.5 258 L 246 259.5 Q 246.7 262.1 244 261 L 244 265.5 L 244.5 267 Q 241.8 267.6 243 261.5 L 254.5 251 Z " /><path fill="rgb(138,181,169)" stroke="rgb(138,181,169)" stroke-width="1" opacity="0.13333333333333333" d="M 201.5 253 L 200.5 255 L 201.5 253 Z " /><path fill="rgb(138,181,169)" stroke="rgb(138,181,169)" stroke-width="1" opacity="0.13333333333333333" d="M 198.5 255 L 200 259.5 L 199 259.5 L 198.5 255 Z " /><path fill="rgb(138,181,169)" stroke="rgb(138,181,169)" stroke-width="1" opacity="0.13333333333333333" d="M 190.5 260 L 194.5 267 L 197.5 269 L 197.5 270 L 191 264.5 L 190.5 260 Z " /><path fill="rgb(138,181,169)" stroke="rgb(138,181,169)" stroke-width="1" opacity="0.13333333333333333" d="M 200.5 261 L 203 261.5 L 200.5 262 L 200.5 261 Z " /><path fill="rgb(138,181,169)" stroke="rgb(138,181,169)" stroke-width="1" opacity="0.13333333333333333" d="M 217.5 262 L 224 262.5 L 216.5 264 L 217.5 262 Z " /><path fill="rgb(138,181,169)" stroke="rgb(138,181,169)" stroke-width="1" opacity="0.13333333333333333" d="M 226.5 262 L 233 262 L 233 265.5 L 232 265.5 L 232 263 L 226.5 263 L 226.5 262 Z " /><path fill="rgb(138,181,169)" stroke="rgb(138,181,169)" stroke-width="1" opacity="0.13333333333333333" d="M 215.5 265 L 217 265.5 L 211.5 270 L 209.5 270 L 209.5 269 L 211.5 269 L 215.5 265 Z " /><path fill="rgb(138,181,169)" stroke="rgb(138,181,169)" stroke-width="1" opacity="0.13333333333333333" d="M 232.5 267 L 233 293 L 218 292.5 L 232 292 L 232.5 267 Z " /><path fill="rgb(138,181,169)" stroke="rgb(138,181,169)" stroke-width="1" opacity="0.13333333333333333" d="M 244.5 269 L 245 270.5 L 243.5 273 L 243 270.5 L 244.5 269 Z " /><path fill="rgb(138,181,169)" stroke="rgb(138,181,169)" stroke-width="1" opacity="0.13333333333333333" d="M 199.5 270 L 208 270.5 L 199.5 271 L 199.5 270 Z " /><path fill="rgb(138,181,169)" stroke="rgb(138,181,169)" stroke-width="1" opacity="0.13333333333333333" d="M 243.5 275 L 244 281.5 L 243 281.5 L 243.5 275 Z " /><path fill="rgb(138,181,169)" stroke="rgb(138,181,169)" stroke-width="1" opacity="0.13333333333333333" d="M 257.5 279 L 258 282.5 L 257 282.5 L 257.5 279 Z " /><path fill="rgb(138,181,169)" stroke="rgb(138,181,169)" stroke-width="1" opacity="0.13333333333333333" d="M 243.5 283 L 244 292 L 248 292.5 L 244.5 293 L 243 291.5 L 243.5 283 Z " /><path fill="rgb(138,181,169)" stroke="rgb(138,181,169)" stroke-width="1" opacity="0.13333333333333333" d="M 216.5 293 L 216 294.5 Q 214.8 300.6 217.5 300 L 218.5 301 L 247 301.5 L 218.5 302 L 215 299.5 Q 213.8 294.3 216.5 293 Z " /><path fill="rgb(138,181,169)" stroke="rgb(138,181,169)" stroke-width="1" opacity="0.13333333333333333" d="M 257.5 293 L 258 297.5 L 257 297.5 L 257.5 293 Z " /><path fill="rgb(138,181,169)" stroke="rgb(138,181,169)" stroke-width="1" opacity="0.13333333333333333" d="M 249.5 294 Q 252.3 295.4 251 300 L 248.5 301 L 250 298.5 L 249.5 294 Z " /><path fill="rgb(138,181,169)" stroke="rgb(138,181,169)" stroke-width="1" opacity="0.13333333333333333" d="M 257.5 300 L 258.5 301 L 300 301.5 L 258.5 302 L 257.5 300 Z " /><path fill="rgb(138,181,169)" stroke="rgb(138,181,169)" stroke-width="1" opacity="0.13333333333333333" d="M 423.5 315 L 418.5 321 L 412 325 Q 413.1 327.7 410.5 327 L 404 332.5 L 420 318.5 L 421.5 316 L 423.5 315 Z " /><path fill="rgb(138,181,169)" stroke="rgb(138,181,169)" stroke-width="1" opacity="0.13333333333333333" d="M 396.5 325 L 397 327 L 380.5 337 L 380.5 336 Q 390.3 332.3 396.5 325 Z " /><path fill="rgb(138,181,169)" stroke="rgb(138,181,169)" stroke-width="1" opacity="0.13333333333333333" d="M 402.5 333 L 400.5 336 L 383.5 347 L 362.5 356 L 362.5 355 L 379.5 348 L 402.5 333 Z " /><path fill="rgb(138,181,169)" stroke="rgb(138,181,169)" stroke-width="1" opacity="0.13333333333333333" d="M 378.5 337 L 376.5 340 L 363.5 346 L 364.5 344 L 378.5 337 Z " /><path fill="rgb(138,181,169)" stroke="rgb(138,181,169)" stroke-width="1" opacity="0.13333333333333333" d="M 358.5 346 L 361 346.5 L 350.5 351 L 332.5 355 L 333.5 353 L 335.5 353 L 343.5 352 L 358.5 346 Z " /><path fill="rgb(138,181,169)" stroke="rgb(138,181,169)" stroke-width="1" opacity="0.13333333333333333" d="M 272.5 353 L 288 355.5 L 281.5 356 L 272.5 354 L 272.5 353 Z " /><path fill="rgb(138,181,169)" stroke="rgb(138,181,169)" stroke-width="1" opacity="0.13333333333333333" d="M 328.5 354 Q 331.1 353.3 330 356 L 324 355.5 L 328.5 354 Z " /><path fill="rgb(138,181,169)" stroke="rgb(138,181,169)" stroke-width="1" opacity="0.13333333333333333" d="M 289.5 356 L 302.5 356 L 304.5 357 L 306.5 357 Q 312 354.5 321.5 356 L 321.5 357 L 311.5 357 L 310.5 358 L 308.5 358 L 289.5 357 L 289.5 356 Z " /><path fill="rgb(138,181,169)" stroke="rgb(138,181,169)" stroke-width="1" opacity="0.13333333333333333" d="M 358.5 356 L 361 356.5 L 350.5 361 L 350 359 L 358.5 356 Z " /><path fill="rgb(138,181,169)" stroke="rgb(138,181,169)" stroke-width="1" opacity="0.13333333333333333" d="M 346.5 360 L 349 360.5 Q 344 364 335.5 364 L 335.5 363 L 342.5 361 L 344.5 361 L 346.5 360 Z " /><path fill="rgb(138,181,169)" stroke="rgb(138,181,169)" stroke-width="1" opacity="0.13333333333333333" d="M 332.5 363 L 334 363.5 Q 331.6 366.1 325.5 365 L 325.5 364 Q 331 365.5 332.5 363 Z " /><path fill="rgb(138,181,169)" stroke="rgb(138,181,169)" stroke-width="1" opacity="0.13333333333333333" d="M 289.5 365 L 324 365.5 L 289.5 366 L 289.5 365 Z " /><path fill="rgb(100,175,114)" stroke="rgb(100,175,114)" stroke-width="1" opacity="0.9647058823529412" d="M 295.5 46 L 316.5 46 L 317.5 47 L 333.5 48 L 356.5 54 L 369.5 59 Q 403.3 74.3 426 100.5 L 446 128.5 L 457 152.5 L 464 180.5 L 465 198.5 L 466 199.5 L 466 212.5 L 465 213.5 L 464 230.5 L 462 233.5 L 463 235.5 Q 459.5 237 462 238.5 L 459.5 245 L 458 245.5 L 459 247.5 L 455 248.5 L 454 244.5 L 455 244.5 Q 453.9 247.8 456.5 247 L 457.5 244 L 459 243.5 L 456 242.5 L 458 242 L 457.5 240 L 455 241 Q 456 244 453 243 L 453 241 Q 455.7 242.1 455 239.5 L 454 236 L 457 235.5 L 455 232 L 457 231.5 Q 454.5 230 456 224.5 L 458 219.5 L 457 216.5 L 458 200.5 L 457 199.5 L 456 179.5 L 450 156.5 L 437 128.5 L 421 105 Q 418.3 106.1 419 103.5 L 416 102 L 410.5 95 L 407.5 93 Q 395.9 80.6 380.5 72 L 356.5 61 L 328.5 54 L 292.5 53 L 291.5 54 L 283.5 54 L 277.5 56 L 272.5 56 L 261.5 59 L 234.5 70 Q 209.5 84 191 104.5 Q 172.8 125.3 162 153.5 L 155 179.5 L 155 187.5 L 153 197.5 L 153 212.5 L 154 213.5 Q 152.5 221 155 224.5 L 155 226.5 L 157 237.5 Q 154.5 239 158 240.5 L 158 244.5 L 162 256.5 Q 159.5 258 163 259.5 L 166 267.5 L 165 268.5 L 168 271.5 L 172 279.5 Q 170.5 282.5 169 279.5 L 169.5 278 L 166.5 280 L 166 278 Q 163.3 279.1 164 276.5 L 162 272.5 L 160 268.5 L 160.5 267 L 158 266.5 L 158 264.5 L 155 257.5 L 155 255.5 L 152 249.5 L 152 247.5 L 149 236.5 L 149 234.5 L 147 224.5 L 147 215.5 L 146 214.5 L 146 197.5 L 147 196.5 L 147 187.5 L 148 186.5 L 149 173.5 L 159 142.5 Q 174.9 107.4 202.5 84 L 219.5 71 L 246.5 57 L 273.5 49 L 284.5 48 L 285.5 47 L 294.5 47 L 295.5 46 Z M 158 260 L 158 262 L 160 261 L 158 260 Z M 168 276 L 167 278 L 169 277 L 168 276 Z " /><path fill="rgb(100,175,114)" stroke="rgb(100,175,114)" stroke-width="1" opacity="0.9647058823529412" d="M 350.5 126 Q 364.5 124.5 369 132.5 Q 374.1 136.9 372 148.5 L 365.5 157 Q 361.3 161.3 351.5 160 Q 344.3 158.2 341 152.5 L 339 149.5 L 338 141.5 L 339 136.5 L 342 131 L 344 131 Q 342.9 128.3 345.5 129 L 350.5 126 Z M 354 133 L 351 134 L 346 140 L 347 149 L 354 153 L 362 151 L 365 146 Q 366 139 363 137 Q 361 132 354 133 Z " /><path fill="rgb(100,175,114)" stroke="rgb(100,175,114)" stroke-width="1" opacity="0.9647058823529412" d="M 408.5 144 Q 415.8 141.4 414 147.5 L 415 148.5 L 415 168 L 406.5 163 L 383.5 186 L 382 186 L 374.5 195 L 371.5 197 L 364 206 L 358.5 210 L 355.5 210 L 326.5 183 L 322 186 L 316.5 193 L 301 206 Q 302.1 208.7 299.5 208 L 293.5 213 L 285 209.5 L 287 206 L 290 205.5 Q 287.8 204.3 290.5 203 Q 292.8 203.8 292 201.5 L 318 177.5 L 319.5 175 L 325.5 170 L 329.5 170 L 356.5 197 L 358.5 195 L 365 189.5 L 365 188 L 367 188 Q 365.9 185.3 368.5 186 L 399 155.5 L 392 148.5 L 393.5 147 L 408.5 144 Z " /><path fill="rgb(100,175,114)" stroke="rgb(100,175,114)" stroke-width="1" opacity="0.9647058823529412" d="M 290.5 154 Q 302.7 152.3 306 159.5 Q 309.5 163.5 308 172.5 L 301.5 180 Q 298 182.5 290.5 181 L 288.5 180 L 278 190.5 L 278 199.5 L 277 200.5 L 278 202.5 L 275.5 204 L 276 202.5 Q 276.8 199.9 273.5 201 L 271 200 L 269.5 191 L 268.5 194 L 268 191.5 L 269 188.5 Q 269.5 183 273.5 181 L 282 173.5 L 281 164.5 L 288.5 155 L 290.5 154 Z M 293 162 L 290 163 L 289 166 L 290 172 Q 292 174 298 173 Q 302 172 301 166 Q 300 161 293 162 Z " /><path fill="rgb(100,175,114)" stroke="rgb(100,175,114)" stroke-width="1" opacity="0.9647058823529412" d="M 399.5 181 L 401 181.5 L 401 295.5 L 396.5 301 L 359 301 L 359 226.5 L 359 224.5 L 359 219.5 L 361 216 L 378 202 Q 376.9 199.3 379.5 200 L 394.5 185 L 396 185 Q 394.9 182.3 397.5 183 L 399.5 181 Z " /><path fill="rgb(100,175,114)" stroke="rgb(100,175,114)" stroke-width="1" opacity="0.9647058823529412" d="M 327.5 197 L 329.5 197 L 350 217.5 L 350 297.5 L 349 298.5 L 349.5 300 L 344.5 301 L 342 300 L 341.5 296 L 340 296.5 L 338 293.5 Q 340.5 292 337 290.5 L 336.5 289 L 334.5 289 L 329 287 L 327 281 L 325 281 L 325 279 Q 322.3 280.1 323 277.5 L 318 274 Q 319.3 271 315.5 272 Q 313 270.8 314 267 L 312 266.5 Q 314.3 265.3 311.5 264 Q 308.8 264.6 310 258.5 L 308 254.5 L 308 215.5 L 327.5 197 Z " /><path fill="rgb(100,175,114)" stroke="rgb(100,175,114)" stroke-width="1" opacity="0.9647058823529412" d="M 275 205 L 278 206.5 L 275 207 L 275 205 Z " /><path fill="rgb(100,175,114)" stroke="rgb(100,175,114)" stroke-width="1" opacity="0.9647058823529412" d="M 290.5 213 L 291.5 215 L 290.5 214 L 288 215.5 L 290.5 213 Z " /><path fill="rgb(100,175,114)" stroke="rgb(100,175,114)" stroke-width="1" opacity="0.9647058823529412" d="M 458.5 250 L 457.5 252 L 458.5 250 Z " /><path fill="rgb(100,175,114)" stroke="rgb(100,175,114)" stroke-width="1" opacity="0.9647058823529412" d="M 454.5 256 L 455 258.5 L 454 258.5 L 454.5 256 Z " /><path fill="rgb(100,175,114)" stroke="rgb(100,175,114)" stroke-width="1" opacity="0.9647058823529412" d="M 170.5 285 L 171.5 288 L 172.5 286 L 173 287.5 L 172 289.5 L 175 288.5 L 174 291.5 L 175 291.5 L 175.5 290 L 177 290.5 L 176 287 L 174 286.5 L 175.5 286 L 179.5 292 L 181 292.5 L 178 293.5 L 178.5 295 L 177 294.5 L 178.5 297 L 180 296.5 L 178.5 299 L 177 298.5 Q 179.3 297.3 176.5 296 L 175 295.5 L 175.5 294 L 173.5 295 L 174 293.5 L 173.5 292 L 172 292.5 Q 174.5 291 171 289.5 L 170.5 288 L 169 288.5 L 170.5 285 Z " /><path fill="rgb(100,175,114)" stroke="rgb(100,175,114)" stroke-width="1" opacity="0.9647058823529412" d="M 180.5 299 L 179.5 301 L 180.5 299 Z " /><path fill="rgb(100,175,114)" stroke="rgb(100,175,114)" stroke-width="1" opacity="0.9647058823529412" d="M 184.5 302 L 183.5 304 L 184.5 302 Z " /><path fill="rgb(100,175,114)" stroke="rgb(100,175,114)" stroke-width="1" opacity="0.9647058823529412" d="M 188.5 304 L 191.5 308 L 188.5 306 L 189 307.5 L 188 309.5 L 188.5 311 L 186 310 L 186 308 Q 183.3 309.1 184 306.5 L 187 307.5 L 188.5 304 Z " /><path fill="rgb(100,175,114)" stroke="rgb(100,175,114)" stroke-width="1" opacity="0.9647058823529412" d="M 193.5 310 L 192.5 312 L 193.5 310 Z " /><path fill="rgb(100,175,114)" stroke="rgb(100,175,114)" stroke-width="1" opacity="0.9647058823529412" d="M 202.5 324 L 203.5 326 L 202.5 324 Z " /></g></svg>